<svg xmlns="http://www.w3.org/2000/svg" xmlns:xlink="http://www.w3.org/1999/xlink" width="500" zoomAndPan="magnify" viewBox="0 0 375 374.999991" height="500" preserveAspectRatio="xMidYMid meet" version="1.0"><defs><g/><clipPath id="id1"><path d="M 159 186 L 223.359375 186 L 223.359375 217 L 159 217 Z M 159 186 " clip-rule="nonzero"/></clipPath><clipPath id="id2"><path d="M 155 193 L 223 193 L 223 221.121094 L 155 221.121094 Z M 155 193 " clip-rule="nonzero"/></clipPath><clipPath id="id3"><path d="M 118.359375 142 L 163 142 L 163 183 L 118.359375 183 Z M 118.359375 142 " clip-rule="nonzero"/></clipPath><clipPath id="id4"><path d="M 146 130.371094 L 172 130.371094 L 172 170 L 146 170 Z M 146 130.371094 " clip-rule="nonzero"/></clipPath></defs><path fill="rgb(0%, 0%, 0%)" d="M 197.304688 189.769531 C 195.585938 190.121094 193.984375 190.847656 192.527344 191.941406 C 191.351562 192.820312 190.535156 193.75 190.054688 194.378906 C 190.550781 194.855469 191.070312 195.332031 191.609375 195.808594 C 192.148438 195.167969 192.914062 194.386719 193.914062 193.636719 C 195.328125 192.574219 197.421875 191.445312 200.191406 191.097656 C 200.289062 191.082031 200.328125 190.960938 200.257812 190.894531 C 200.136719 190.777344 200.015625 190.660156 199.894531 190.539062 C 199.214844 189.867188 198.242188 189.578125 197.304688 189.769531 " fill-opacity="1" fill-rule="nonzero"/><path fill="rgb(0%, 0%, 0%)" d="M 194.824219 187.222656 C 193.265625 187.597656 191.8125 188.28125 190.476562 189.277344 C 189.085938 190.308594 188.183594 191.429688 187.75 192.035156 C 188.199219 192.519531 188.6875 193.027344 189.210938 193.550781 C 189.75 192.863281 190.613281 191.90625 191.824219 191 C 193.179688 189.984375 195.15625 188.910156 197.746094 188.511719 C 197.835938 188.496094 197.878906 188.386719 197.816406 188.316406 C 197.773438 188.265625 197.730469 188.214844 197.6875 188.164062 C 196.980469 187.339844 195.878906 186.96875 194.824219 187.222656 " fill-opacity="1" fill-rule="nonzero"/><path fill="rgb(0%, 0%, 0%)" d="M 188.386719 186.640625 C 186.871094 187.769531 185.933594 189 185.550781 189.554688 C 185.910156 189.980469 186.378906 190.527344 186.941406 191.15625 C 187.460938 190.457031 188.378906 189.382812 189.738281 188.363281 C 191.089844 187.351562 193.0625 186.277344 195.652344 185.875 C 195.738281 185.863281 195.78125 185.761719 195.730469 185.691406 C 195.039062 184.761719 193.871094 184.316406 192.746094 184.585938 C 191.1875 184.957031 189.730469 185.644531 188.386719 186.640625 " fill-opacity="1" fill-rule="nonzero"/><path fill="rgb(0%, 0%, 0%)" d="M 192.5 196.570312 L 193.148438 197.046875 C 193.5 197.328125 193.851562 197.601562 194.210938 197.867188 C 194.691406 197.363281 195.285156 196.808594 196.003906 196.269531 C 197.570312 195.09375 199.976562 193.835938 203.207031 193.644531 C 203.316406 193.640625 203.359375 193.496094 203.269531 193.433594 C 203.007812 193.242188 202.746094 193.042969 202.492188 192.84375 C 201.898438 192.375 201.148438 192.15625 200.398438 192.246094 C 198.304688 192.492188 196.382812 193.261719 194.652344 194.546875 C 193.714844 195.242188 193 195.976562 192.5 196.570312 " fill-opacity="1" fill-rule="nonzero"/><path fill="rgb(0%, 0%, 0%)" d="M 195.179688 198.554688 C 196.648438 199.550781 198.191406 200.378906 199.820312 200.933594 C 203.0625 202.035156 205.777344 201.847656 207.898438 200.378906 C 208.648438 199.855469 209.191406 199.253906 209.554688 198.765625 C 209.855469 198.363281 209.722656 197.789062 209.277344 197.554688 C 208.222656 196.992188 207.167969 196.453125 206.121094 195.914062 C 205.441406 195.5625 204.789062 195.1875 204.15625 194.792969 C 201.394531 194.761719 198.894531 195.570312 196.703125 197.210938 C 196.101562 197.660156 195.59375 198.125 195.179688 198.554688 " fill-opacity="1" fill-rule="nonzero"/><path fill="rgb(0%, 0%, 0%)" d="M 168.96875 170.023438 C 167.757812 169.800781 161.367188 169.433594 158.136719 185.59375 C 158.03125 186.105469 157.84375 186.597656 157.578125 187.046875 C 157.398438 187.355469 157.171875 187.761719 156.925781 188.242188 C 156.34375 189.402344 156.511719 190.796875 157.351562 191.785156 C 157.640625 192.125 157.980469 192.503906 158.371094 192.90625 C 160.585938 191.210938 163.191406 189.683594 166.121094 188.359375 C 169.765625 186.710938 174.011719 184.976562 178.28125 185.265625 C 181.144531 185.460938 183.101562 186.882812 184.785156 188.613281 C 185.289062 187.921875 186.230469 186.792969 187.648438 185.730469 C 188.902344 184.789062 190.695312 183.796875 193.011719 183.339844 C 192.996094 183.316406 192.976562 183.292969 192.960938 183.265625 L 192.953125 183.273438 C 192.882812 183.167969 192.808594 183.0625 192.738281 182.957031 C 191.042969 180.613281 190.011719 178.921875 190.011719 178.921875 C 189.582031 178.277344 189.15625 177.632812 188.726562 176.988281 C 188.191406 176.191406 187.3125 175.691406 186.355469 175.644531 C 183.699219 175.515625 178.542969 175.640625 178.433594 178.550781 C 178.328125 181.3125 174.371094 181.324219 172.417969 181.257812 C 168.933594 181.132812 167.300781 178.746094 166.300781 175.554688 C 165.988281 174.558594 166.390625 173.457031 167.300781 172.957031 C 168.089844 172.527344 169.175781 172.574219 170.4375 174.414062 L 170.460938 174.449219 C 170.707031 174.8125 170.921875 175.199219 171.109375 175.597656 C 171.675781 176.792969 172.566406 177.632812 173.632812 178.207031 C 174.488281 178.671875 175.453125 178.96875 176.449219 179.144531 C 176.796875 179.222656 177.128906 179.273438 177.40625 179.277344 L 177.511719 179.121094 C 177.597656 178.941406 177.644531 178.742188 177.652344 178.523438 C 177.671875 178.058594 177.785156 177.632812 177.992188 177.246094 L 177.710938 177.152344 L 177.71875 177.148438 C 177.136719 176.996094 176.5625 176.8125 176.015625 176.578125 C 175.625 176.414062 175.304688 176.234375 175.027344 176.046875 C 174.042969 175.367188 173.664062 174.515625 172.933594 173.3125 C 172.722656 172.964844 172.511719 172.632812 172.285156 172.320312 C 171.457031 171.175781 170.472656 170.300781 168.96875 170.023438 " fill-opacity="1" fill-rule="nonzero"/><g clip-path="url(#id1)"><path fill="rgb(0%, 0%, 0%)" d="M 223.324219 211.480469 L 223.324219 211.464844 C 223.242188 210.0625 222.605469 208.53125 221.335938 206.890625 C 218.609375 203.363281 214.917969 200.839844 211.054688 198.652344 C 210.773438 199.171875 210.003906 200.390625 208.578125 201.382812 C 207.035156 202.453125 204.421875 203.433594 200.519531 202.371094 C 200.175781 202.277344 199.824219 202.167969 199.460938 202.042969 C 195.09375 200.519531 191.386719 197.179688 188.035156 193.796875 C 187.253906 193.007812 186.542969 192.164062 185.851562 191.34375 C 183.773438 188.871094 181.808594 186.535156 178.316406 186.269531 C 174.308594 185.96875 170.199219 187.613281 166.664062 189.179688 C 163.859375 190.425781 161.359375 191.859375 159.226562 193.449219 C 159.8125 194.007812 160.488281 194.59375 161.253906 195.183594 C 161.375 195.28125 161.5 195.378906 161.628906 195.480469 C 161.71875 195.546875 161.8125 195.617188 161.90625 195.683594 C 162.660156 196.222656 163.511719 196.765625 164.453125 197.285156 C 164.527344 197.328125 164.601562 197.367188 164.675781 197.40625 L 164.703125 197.421875 C 164.878906 197.519531 165.0625 197.613281 165.25 197.710938 L 165.289062 197.730469 C 165.347656 197.757812 165.40625 197.789062 165.464844 197.816406 C 165.695312 197.933594 165.933594 198.050781 166.179688 198.164062 C 166.28125 198.214844 166.386719 198.261719 166.488281 198.3125 C 166.59375 198.359375 166.699219 198.402344 166.804688 198.445312 C 167.019531 198.539062 167.234375 198.628906 167.453125 198.71875 C 167.671875 198.8125 167.894531 198.886719 168.121094 198.972656 C 168.34375 199.054688 168.570312 199.148438 168.800781 199.214844 C 169.035156 199.289062 169.265625 199.367188 169.503906 199.441406 C 169.738281 199.515625 169.980469 199.570312 170.21875 199.636719 C 170.339844 199.671875 170.460938 199.703125 170.582031 199.734375 C 170.703125 199.761719 170.828125 199.785156 170.949219 199.8125 C 171.074219 199.839844 171.195312 199.863281 171.320312 199.890625 C 171.445312 199.914062 171.570312 199.949219 171.691406 199.960938 L 171.730469 199.96875 L 179.339844 192.4375 L 182.28125 195.429688 L 176.765625 200.886719 C 177.433594 201.15625 178.078125 201.492188 178.6875 201.871094 C 178.71875 201.890625 178.75 201.914062 178.78125 201.933594 L 183.863281 196.90625 L 186.800781 199.898438 L 181.996094 204.652344 C 182.34375 205.027344 182.675781 205.414062 183 205.835938 C 183.050781 205.902344 183.101562 205.96875 183.15625 206.046875 L 183.179688 206.078125 C 183.222656 206.144531 183.203125 206.109375 183.214844 206.132812 L 183.238281 206.164062 C 183.25 206.183594 183.269531 206.210938 183.289062 206.238281 C 183.367188 206.347656 183.453125 206.460938 183.539062 206.574219 C 183.71875 206.796875 183.90625 207.019531 184.105469 207.238281 C 184.898438 208.113281 185.808594 208.925781 186.777344 209.671875 C 187.746094 210.417969 188.785156 211.097656 189.863281 211.710938 C 190.132812 211.859375 190.402344 212.011719 190.679688 212.15625 L 191.507812 212.582031 C 191.789062 212.714844 192.070312 212.847656 192.351562 212.976562 C 192.632812 213.109375 192.917969 213.226562 193.203125 213.351562 C 193.488281 213.480469 193.777344 213.589844 194.066406 213.703125 L 194.5 213.875 C 194.644531 213.929688 194.789062 213.980469 194.9375 214.03125 C 195.226562 214.136719 195.519531 214.242188 195.8125 214.34375 C 196.105469 214.4375 196.398438 214.53125 196.691406 214.625 C 197.871094 214.984375 199.054688 215.308594 200.242188 215.558594 C 200.539062 215.621094 200.832031 215.691406 201.128906 215.75 C 201.425781 215.804688 201.722656 215.859375 202.015625 215.914062 C 202.164062 215.941406 202.308594 215.96875 202.457031 215.996094 C 202.605469 216.019531 202.753906 216.042969 202.898438 216.066406 C 203.191406 216.109375 203.488281 216.15625 203.777344 216.199219 C 204.070312 216.25 204.363281 216.28125 204.652344 216.316406 C 204.945312 216.351562 205.234375 216.386719 205.523438 216.425781 C 206.101562 216.488281 206.675781 216.535156 207.242188 216.589844 L 207.347656 216.597656 L 207.402344 216.601562 L 207.417969 216.605469 L 207.445312 216.605469 L 207.660156 216.617188 C 207.800781 216.625 207.945312 216.632812 208.085938 216.640625 L 208.296875 216.652344 L 208.503906 216.65625 C 208.640625 216.65625 208.777344 216.660156 208.914062 216.660156 C 209.183594 216.667969 209.460938 216.652344 209.734375 216.648438 C 209.867188 216.644531 210.003906 216.644531 210.140625 216.632812 C 210.273438 216.625 210.410156 216.617188 210.542969 216.605469 C 211.617188 216.535156 212.664062 216.398438 213.667969 216.21875 C 214.667969 216.03125 215.628906 215.804688 216.542969 215.554688 C 217.457031 215.300781 218.320312 215.015625 219.132812 214.722656 C 219.945312 214.421875 220.707031 214.109375 221.410156 213.789062 C 221.6875 213.664062 221.957031 213.535156 222.210938 213.402344 C 222.925781 213.035156 223.367188 212.28125 223.324219 211.480469 " fill-opacity="1" fill-rule="nonzero"/></g><path fill="rgb(0%, 0%, 0%)" d="M 162.886719 169.917969 C 162.996094 170.308594 163.09375 170.703125 163.175781 171.097656 C 164.128906 170.175781 165.066406 169.613281 165.898438 169.269531 L 162.886719 169.917969 " fill-opacity="1" fill-rule="nonzero"/><g clip-path="url(#id2)"><path fill="rgb(0%, 0%, 0%)" d="M 219.058594 216.078125 C 218.242188 216.398438 217.375 216.714844 216.457031 217 C 215.535156 217.277344 214.566406 217.539062 213.546875 217.757812 C 212.53125 217.96875 211.464844 218.140625 210.359375 218.246094 C 210.222656 218.257812 210.082031 218.273438 209.941406 218.285156 C 209.804688 218.296875 209.664062 218.304688 209.523438 218.3125 C 209.242188 218.328125 208.960938 218.347656 208.667969 218.347656 C 208.523438 218.351562 208.378906 218.355469 208.234375 218.355469 L 208.015625 218.359375 L 207.804688 218.355469 C 207.660156 218.351562 207.519531 218.347656 207.375 218.34375 L 207.160156 218.335938 L 207.097656 218.335938 L 207.042969 218.332031 L 206.9375 218.324219 C 206.359375 218.285156 205.773438 218.253906 205.183594 218.207031 C 204.890625 218.179688 204.59375 218.152344 204.296875 218.125 C 204 218.09375 203.699219 218.070312 203.402344 218.03125 C 203.101562 217.992188 202.800781 217.957031 202.5 217.917969 C 202.351562 217.898438 202.199219 217.882812 202.046875 217.859375 C 201.898438 217.835938 201.746094 217.8125 201.59375 217.789062 C 201.292969 217.742188 200.988281 217.695312 200.683594 217.644531 C 200.378906 217.597656 200.074219 217.535156 199.769531 217.476562 C 198.542969 217.253906 197.316406 216.960938 196.085938 216.621094 C 195.78125 216.53125 195.476562 216.445312 195.167969 216.355469 C 194.863281 216.261719 194.558594 216.15625 194.25 216.058594 C 194.097656 216.007812 193.945312 215.960938 193.792969 215.90625 L 193.339844 215.742188 C 193.035156 215.632812 192.730469 215.527344 192.429688 215.402344 C 192.128906 215.28125 191.828125 215.167969 191.527344 215.039062 C 191.230469 214.90625 190.933594 214.777344 190.632812 214.648438 L 189.75 214.226562 C 189.457031 214.082031 189.167969 213.929688 188.878906 213.78125 C 187.722656 213.167969 186.597656 212.480469 185.535156 211.703125 C 184.46875 210.933594 183.457031 210.085938 182.535156 209.125 C 182.304688 208.882812 182.082031 208.636719 181.863281 208.375 C 181.753906 208.246094 181.648438 208.113281 181.539062 207.96875 C 181.511719 207.933594 181.488281 207.902344 181.453125 207.855469 L 181.410156 207.792969 C 181.414062 207.796875 181.378906 207.75 181.410156 207.796875 L 181.402344 207.78125 L 181.277344 207.625 C 180.914062 207.179688 180.515625 206.75 180.105469 206.347656 C 179.277344 205.542969 178.378906 204.835938 177.441406 204.289062 C 176.5 203.738281 175.519531 203.347656 174.550781 203.167969 C 174.429688 203.148438 174.308594 203.128906 174.1875 203.109375 C 174.125 203.097656 174.074219 203.097656 174.015625 203.089844 L 173.769531 203.066406 L 173.667969 203.0625 L 173.453125 203.054688 C 173.320312 203.046875 173.183594 203.042969 173.046875 203.035156 C 172.894531 203.027344 172.742188 203.019531 172.589844 203.011719 L 172.363281 203 C 172.285156 203 172.210938 202.996094 172.136719 202.984375 C 171.839844 202.949219 171.546875 202.914062 171.253906 202.878906 C 171.105469 202.867188 170.964844 202.835938 170.820312 202.808594 C 170.675781 202.785156 170.535156 202.757812 170.394531 202.734375 C 170.25 202.707031 170.109375 202.683594 169.96875 202.65625 C 169.832031 202.621094 169.691406 202.589844 169.554688 202.558594 C 169.28125 202.492188 169.007812 202.433594 168.742188 202.359375 C 168.476562 202.28125 168.210938 202.207031 167.949219 202.128906 C 167.6875 202.058594 167.4375 201.96875 167.183594 201.882812 C 166.933594 201.796875 166.679688 201.714844 166.4375 201.621094 C 166.191406 201.527344 165.953125 201.433594 165.714844 201.339844 C 165.59375 201.296875 165.476562 201.25 165.359375 201.203125 C 165.242188 201.152344 165.128906 201.101562 165.011719 201.050781 C 163.171875 200.253906 161.5625 199.351562 160.199219 198.433594 C 160.042969 198.332031 159.894531 198.226562 159.746094 198.121094 C 159.226562 197.769531 158.742188 197.421875 158.300781 197.070312 C 158.015625 196.859375 157.738281 196.609375 157.476562 196.382812 C 157.34375 196.269531 157.210938 196.15625 157.09375 196.046875 C 156.988281 195.945312 156.886719 195.84375 156.785156 195.75 C 156.683594 195.652344 156.585938 195.554688 156.492188 195.464844 C 156.46875 195.441406 156.445312 195.417969 156.421875 195.394531 L 156.386719 195.363281 L 156.378906 195.355469 L 156.332031 195.304688 L 156.3125 195.28125 C 156.253906 195.21875 156.195312 195.160156 156.140625 195.09375 C 155.925781 194.84375 155.738281 194.59375 155.582031 194.347656 C 155.441406 194.128906 155.328125 193.921875 155.230469 193.722656 C 155.132812 195.1875 155.417969 196.628906 156.410156 197.777344 C 159.824219 201.726562 166.617188 205.148438 171.648438 205.257812 C 176.679688 205.371094 180.234375 210.578125 180.234375 210.578125 C 180.234375 210.578125 181.035156 211.859375 182.96875 213.527344 L 186.730469 213.789062 L 185.042969 213.9375 L 183.617188 214.066406 L 157.140625 216.394531 L 187.09375 216.394531 C 188.027344 216.921875 189.070312 217.445312 190.238281 217.9375 L 194.652344 218.363281 L 191.90625 218.589844 L 161.785156 221.082031 L 206.414062 221.082031 L 206.347656 221.066406 C 210.382812 220.914062 214.71875 219.636719 218.199219 217.929688 C 220.203125 216.949219 221.691406 215.765625 222.554688 214.414062 C 222.171875 214.640625 221.761719 214.859375 221.328125 215.070312 C 220.628906 215.414062 219.871094 215.75 219.058594 216.078125 " fill-opacity="1" fill-rule="nonzero"/></g><path fill="rgb(0%, 0%, 0%)" d="M 157.242188 184.078125 C 157.773438 181.699219 158.398438 179.582031 159.113281 177.738281 L 155.167969 183.863281 C 155.183594 183.867188 155.199219 183.871094 155.214844 183.875 C 155.890625 184.089844 156.578125 184.148438 157.242188 184.078125 " fill-opacity="1" fill-rule="nonzero"/><g clip-path="url(#id3)"><path fill="rgb(0%, 0%, 0%)" d="M 156.945312 180.695312 L 159.175781 177.578125 C 160.046875 175.382812 161.050781 173.582031 162.179688 172.1875 C 161.296875 166.785156 157.929688 161.914062 152.773438 159.296875 L 118.996094 142.144531 C 118.996094 142.144531 118.523438 143.78125 118.4375 146.457031 C 118.367188 148.601562 119.65625 150.554688 121.648438 151.332031 L 151.300781 162.96875 L 118.84375 152.03125 C 118.976562 152.789062 119.148438 153.578125 119.363281 154.390625 C 119.832031 156.144531 121.199219 157.511719 122.949219 157.976562 L 151.46875 165.5625 L 121.042969 159.042969 C 121.398438 159.820312 121.800781 160.613281 122.253906 161.410156 C 123.050781 162.808594 124.464844 163.738281 126.054688 163.921875 L 152.480469 166.984375 L 124.726562 165.136719 C 125.378906 165.988281 126.09375 166.84375 126.878906 167.699219 C 127.855469 168.757812 129.234375 169.347656 130.671875 169.324219 L 153.191406 168.949219 L 129.71875 170.492188 C 130.566406 171.25 131.476562 172.003906 132.453125 172.75 C 133.574219 173.605469 135 173.960938 136.386719 173.71875 L 154.382812 170.585938 L 135.414062 174.855469 C 136.03125 175.257812 136.667969 175.660156 137.328125 176.058594 C 138.570312 176.8125 140.078125 176.980469 141.460938 176.535156 L 155.035156 172.160156 L 140.265625 177.734375 C 140.851562 178.046875 141.457031 178.359375 142.074219 178.667969 C 143.480469 179.367188 145.128906 179.363281 146.539062 178.667969 L 156.375 173.804688 L 145.089844 180.085938 C 145.699219 180.355469 146.324219 180.625 146.960938 180.890625 C 148.613281 181.578125 150.503906 181.34375 151.9375 180.261719 L 158.113281 175.605469 L 150.230469 182.175781 C 150.53125 182.285156 150.828125 182.394531 151.132812 182.503906 C 153.257812 183.269531 155.628906 182.535156 156.945312 180.695312 " fill-opacity="1" fill-rule="nonzero"/></g><g clip-path="url(#id4)"><path fill="rgb(0%, 0%, 0%)" d="M 148.320312 148.648438 L 166.097656 160.765625 L 146.917969 149.019531 C 147.066406 149.875 147.257812 150.753906 147.5 151.660156 C 147.804688 152.785156 148.570312 153.730469 149.609375 154.25 L 165.871094 162.441406 L 148.492188 154.726562 C 148.660156 155.167969 148.835938 155.613281 149.027344 156.0625 L 153.304688 158.234375 C 154.9375 159.0625 156.421875 160.121094 157.726562 161.363281 L 166.117188 164.058594 L 158.34375 161.972656 C 159.078125 162.742188 159.75 163.570312 160.347656 164.453125 L 165.996094 165.433594 L 160.554688 164.761719 C 161.019531 165.476562 161.4375 166.222656 161.800781 167 L 166.339844 167.113281 L 161.902344 167.222656 C 162.003906 167.441406 162.101562 167.664062 162.195312 167.890625 C 162.441406 168.492188 162.648438 169.105469 162.832031 169.726562 L 166.128906 169.179688 C 167.011719 168.855469 167.765625 168.777344 168.289062 168.777344 C 168.605469 168.777344 168.90625 168.800781 169.183594 168.851562 C 169.730469 168.953125 170.214844 169.121094 170.648438 169.328125 C 172.578125 164.855469 172.148438 159.546875 169.171875 155.371094 L 151.386719 130.410156 C 151.386719 130.410156 150.4375 131.402344 149.378906 133.285156 C 148.53125 134.792969 148.722656 136.675781 149.855469 137.980469 L 166.75 157.449219 L 147.589844 137.429688 C 147.402344 138.019531 147.230469 138.648438 147.082031 139.3125 C 146.765625 140.742188 147.234375 142.234375 148.3125 143.226562 L 165.898438 159.367188 L 146.550781 143.273438 C 146.515625 143.964844 146.507812 144.683594 146.535156 145.421875 C 146.582031 146.722656 147.25 147.917969 148.320312 148.648438 " fill-opacity="1" fill-rule="nonzero"/></g><g fill="rgb(0%, 0%, 0%)" fill-opacity="1"><g transform="translate(100.020213, 240.150041)"><g><path d="M 4.234375 0 L 0.328125 0 L 3.421875 -14.609375 L 12.03125 -14.609375 L 11.359375 -11.4375 L 6.65625 -11.4375 L 6.078125 -8.65625 L 10.4375 -8.65625 L 9.75 -5.46875 L 5.359375 -5.46875 Z M 4.234375 0 "/></g></g></g><g fill="rgb(0%, 0%, 0%)" fill-opacity="1"><g transform="translate(111.662365, 240.150041)"><g><path d="M 0.328125 0 L 3.421875 -14.609375 L 7.328125 -14.609375 L 4.921875 -3.1875 L 9.6875 -3.1875 L 9 0 Z M 0.328125 0 "/></g></g></g><g fill="rgb(0%, 0%, 0%)" fill-opacity="1"><g transform="translate(122.445097, 240.150041)"><g><path d="M 6.5625 -9.1875 L 9.6875 -14.609375 L 14.046875 -14.609375 L 7.921875 -5.671875 L 6.71875 0 L 2.8125 0 L 4 -5.671875 L 1.640625 -14.609375 L 5.671875 -14.609375 Z M 6.5625 -9.1875 "/></g></g></g><g fill="rgb(0%, 0%, 0%)" fill-opacity="1"><g transform="translate(134.806764, 240.150041)"><g><path d="M 0.3125 0 L 3.390625 -14.609375 L 7.359375 -14.609375 L 4.28125 0 Z M 0.3125 0 "/></g></g></g><g fill="rgb(0%, 0%, 0%)" fill-opacity="1"><g transform="translate(142.07187, 240.150041)"><g><path d="M 13.1875 0 L 8.640625 0 L 5.75 -10.28125 L 5.671875 -10.28125 C 5.472656 -8.332031 5.28125 -6.9375 5.09375 -6.09375 L 3.8125 0 L 0.328125 0 L 3.421875 -14.609375 L 7.96875 -14.609375 L 10.828125 -4.78125 L 10.90625 -4.78125 C 11.101562 -6.351562 11.296875 -7.59375 11.484375 -8.5 L 12.796875 -14.609375 L 16.265625 -14.609375 Z M 13.1875 0 "/></g></g></g><g fill="rgb(0%, 0%, 0%)" fill-opacity="1"><g transform="translate(158.240961, 240.150041)"><g><path d="M 7.3125 -8.5625 L 13.40625 -8.5625 L 11.734375 -0.609375 C 10.066406 -0.0664062 8.332031 0.203125 6.53125 0.203125 C 4.789062 0.203125 3.441406 -0.300781 2.484375 -1.3125 C 1.523438 -2.332031 1.046875 -3.769531 1.046875 -5.625 C 1.046875 -7.40625 1.410156 -9.007812 2.140625 -10.4375 C 2.867188 -11.875 3.867188 -12.96875 5.140625 -13.71875 C 6.421875 -14.46875 7.910156 -14.84375 9.609375 -14.84375 C 11.378906 -14.84375 12.867188 -14.484375 14.078125 -13.765625 L 12.609375 -10.6875 C 11.585938 -11.28125 10.570312 -11.578125 9.5625 -11.578125 C 8.675781 -11.578125 7.894531 -11.335938 7.21875 -10.859375 C 6.539062 -10.378906 6 -9.664062 5.59375 -8.71875 C 5.195312 -7.769531 5 -6.757812 5 -5.6875 C 5 -3.925781 5.695312 -3.046875 7.09375 -3.046875 C 7.507812 -3.046875 7.953125 -3.09375 8.421875 -3.1875 L 8.921875 -5.5 L 6.640625 -5.5 Z M 7.3125 -8.5625 "/></g></g></g><g fill="rgb(0%, 0%, 0%)" fill-opacity="1"><g transform="translate(172.531319, 240.150041)"><g><path d="M 9.765625 -4.484375 C 9.765625 -3.003906 9.273438 -1.851562 8.296875 -1.03125 C 7.316406 -0.207031 5.953125 0.203125 4.203125 0.203125 C 3.460938 0.203125 2.765625 0.117188 2.109375 -0.046875 C 1.460938 -0.210938 0.90625 -0.453125 0.4375 -0.765625 L 0.4375 -4.25 C 0.988281 -3.90625 1.625 -3.613281 2.34375 -3.375 C 3.070312 -3.132812 3.726562 -3.015625 4.3125 -3.015625 C 4.8125 -3.015625 5.1875 -3.113281 5.4375 -3.3125 C 5.6875 -3.519531 5.8125 -3.816406 5.8125 -4.203125 C 5.8125 -4.378906 5.769531 -4.546875 5.6875 -4.703125 C 5.613281 -4.859375 5.503906 -5.015625 5.359375 -5.171875 C 5.210938 -5.328125 4.816406 -5.671875 4.171875 -6.203125 C 3.398438 -6.828125 2.835938 -7.46875 2.484375 -8.125 C 2.128906 -8.78125 1.953125 -9.5 1.953125 -10.28125 C 1.953125 -11.144531 2.171875 -11.925781 2.609375 -12.625 C 3.046875 -13.320312 3.660156 -13.863281 4.453125 -14.25 C 5.242188 -14.632812 6.132812 -14.828125 7.125 -14.828125 C 8.71875 -14.828125 10.148438 -14.46875 11.421875 -13.75 L 10.078125 -10.78125 C 8.929688 -11.363281 7.960938 -11.65625 7.171875 -11.65625 C 6.742188 -11.65625 6.414062 -11.5625 6.1875 -11.375 C 5.957031 -11.195312 5.84375 -10.925781 5.84375 -10.5625 C 5.84375 -10.238281 5.953125 -9.929688 6.171875 -9.640625 C 6.390625 -9.359375 6.816406 -8.984375 7.453125 -8.515625 C 8.234375 -7.929688 8.8125 -7.320312 9.1875 -6.6875 C 9.570312 -6.050781 9.765625 -5.316406 9.765625 -4.484375 Z M 9.765625 -4.484375 "/></g></g></g><g fill="rgb(0%, 0%, 0%)" fill-opacity="1"><g transform="translate(183.743755, 240.150041)"><g><path d="M 13.1875 0 L 8.640625 0 L 5.75 -10.28125 L 5.671875 -10.28125 C 5.472656 -8.332031 5.28125 -6.9375 5.09375 -6.09375 L 3.8125 0 L 0.328125 0 L 3.421875 -14.609375 L 7.96875 -14.609375 L 10.828125 -4.78125 L 10.90625 -4.78125 C 11.101562 -6.351562 11.296875 -7.59375 11.484375 -8.5 L 12.796875 -14.609375 L 16.265625 -14.609375 Z M 13.1875 0 "/></g></g></g><g fill="rgb(0%, 0%, 0%)" fill-opacity="1"><g transform="translate(199.912845, 240.150041)"><g><path d="M 9 0 L 0.328125 0 L 3.421875 -14.609375 L 12.09375 -14.609375 L 11.4375 -11.4375 L 6.671875 -11.4375 L 6.203125 -9.140625 L 10.640625 -9.140625 L 9.921875 -5.984375 L 5.484375 -5.984375 L 4.921875 -3.21875 L 9.6875 -3.21875 Z M 9 0 "/></g></g></g><g fill="rgb(0%, 0%, 0%)" fill-opacity="1"><g transform="translate(211.415092, 240.150041)"><g><path d="M 8.578125 -2.734375 L 4.09375 -2.734375 L 2.84375 0 L -1.203125 0 L 6.234375 -14.609375 L 11.25 -14.609375 L 12.484375 0 L 8.671875 0 Z M 5.53125 -5.859375 L 8.453125 -5.859375 L 8.28125 -10.09375 L 8.265625 -10.953125 C 8.265625 -11.453125 8.28125 -11.890625 8.3125 -12.265625 C 8.144531 -11.691406 7.941406 -11.140625 7.703125 -10.609375 Z M 5.53125 -5.859375 "/></g></g></g><g fill="rgb(0%, 0%, 0%)" fill-opacity="1"><g transform="translate(225.245761, 240.150041)"><g><path d="M 12.40625 0 L 8.03125 0 L 6.28125 -5.78125 L 5.3125 -5.21875 L 4.234375 0 L 0.328125 0 L 3.421875 -14.609375 L 7.328125 -14.609375 L 5.984375 -8.375 L 6.359375 -8.96875 C 6.941406 -9.914062 7.375 -10.5625 7.65625 -10.90625 L 10.625 -14.609375 L 15.21875 -14.609375 L 9.703125 -7.875 Z M 12.40625 0 "/></g></g></g><g fill="rgb(0%, 0%, 0%)" fill-opacity="1"><g transform="translate(238.936524, 240.150041)"><g><path d="M 9 0 L 0.328125 0 L 3.421875 -14.609375 L 12.09375 -14.609375 L 11.4375 -11.4375 L 6.671875 -11.4375 L 6.203125 -9.140625 L 10.640625 -9.140625 L 9.921875 -5.984375 L 5.484375 -5.984375 L 4.921875 -3.21875 L 9.6875 -3.21875 Z M 9 0 "/></g></g></g><g fill="rgb(0%, 0%, 0%)" fill-opacity="1"><g transform="translate(250.438771, 240.150041)"><g><path d="M 5.359375 -5.3125 L 4.234375 0 L 0.328125 0 L 3.421875 -14.609375 L 7.28125 -14.609375 C 8.957031 -14.609375 10.242188 -14.273438 11.140625 -13.609375 C 12.035156 -12.941406 12.484375 -11.941406 12.484375 -10.609375 C 12.484375 -9.566406 12.242188 -8.65625 11.765625 -7.875 C 11.296875 -7.101562 10.597656 -6.515625 9.671875 -6.109375 L 11.90625 -0.953125 L 12.296875 0 L 8.046875 0 L 6.09375 -5.3125 Z M 6 -8.28125 L 6.5 -8.28125 C 7.132812 -8.28125 7.640625 -8.460938 8.015625 -8.828125 C 8.390625 -9.191406 8.578125 -9.703125 8.578125 -10.359375 C 8.578125 -10.765625 8.460938 -11.078125 8.234375 -11.296875 C 8.003906 -11.515625 7.664062 -11.625 7.21875 -11.625 L 6.703125 -11.625 Z M 6 -8.28125 "/></g></g></g><g fill="rgb(0%, 0%, 0%)" fill-opacity="1"><g transform="translate(263.739804, 240.150041)"><g><path d="M 9.765625 -4.484375 C 9.765625 -3.003906 9.273438 -1.851562 8.296875 -1.03125 C 7.316406 -0.207031 5.953125 0.203125 4.203125 0.203125 C 3.460938 0.203125 2.765625 0.117188 2.109375 -0.046875 C 1.460938 -0.210938 0.90625 -0.453125 0.4375 -0.765625 L 0.4375 -4.25 C 0.988281 -3.90625 1.625 -3.613281 2.34375 -3.375 C 3.070312 -3.132812 3.726562 -3.015625 4.3125 -3.015625 C 4.8125 -3.015625 5.1875 -3.113281 5.4375 -3.3125 C 5.6875 -3.519531 5.8125 -3.816406 5.8125 -4.203125 C 5.8125 -4.378906 5.769531 -4.546875 5.6875 -4.703125 C 5.613281 -4.859375 5.503906 -5.015625 5.359375 -5.171875 C 5.210938 -5.328125 4.816406 -5.671875 4.171875 -6.203125 C 3.398438 -6.828125 2.835938 -7.46875 2.484375 -8.125 C 2.128906 -8.78125 1.953125 -9.5 1.953125 -10.28125 C 1.953125 -11.144531 2.171875 -11.925781 2.609375 -12.625 C 3.046875 -13.320312 3.660156 -13.863281 4.453125 -14.25 C 5.242188 -14.632812 6.132812 -14.828125 7.125 -14.828125 C 8.71875 -14.828125 10.148438 -14.46875 11.421875 -13.75 L 10.078125 -10.78125 C 8.929688 -11.363281 7.960938 -11.65625 7.171875 -11.65625 C 6.742188 -11.65625 6.414062 -11.5625 6.1875 -11.375 C 5.957031 -11.195312 5.84375 -10.925781 5.84375 -10.5625 C 5.84375 -10.238281 5.953125 -9.929688 6.171875 -9.640625 C 6.390625 -9.359375 6.816406 -8.984375 7.453125 -8.515625 C 8.234375 -7.929688 8.8125 -7.320312 9.1875 -6.6875 C 9.570312 -6.050781 9.765625 -5.316406 9.765625 -4.484375 Z M 9.765625 -4.484375 "/></g></g></g><path stroke-linecap="butt" transform="matrix(3.703703, 0, 0, 3.75, 75.294456, 222.630967)" fill="none" stroke-linejoin="miter" d="M -0.000401438 0.000492139 L 4.051708 0.000492139 " stroke="rgb(0%, 0%, 0%)" stroke-width="1" stroke-opacity="1" stroke-miterlimit="4"/><path stroke-linecap="butt" transform="matrix(3.703703, 0, 0, 3.75, 284.509733, 222.630967)" fill="none" stroke-linejoin="miter" d="M -0.00051854 0.000492139 L 4.052646 0.000492139 " stroke="rgb(0%, 0%, 0%)" stroke-width="1" stroke-opacity="1" stroke-miterlimit="4"/></svg>